<svg xmlns="http://www.w3.org/2000/svg" width="743" height="299" viewBox="0 0 743 299" fill="none"><path fill-rule="evenodd" clip-rule="evenodd" d="M75.501 1.3816L2.13797 43.7357C1.61684 44.0365 1.18419 44.4694 0.883629 44.9907C0.583063 45.5121 0.425187 46.1034 0.425906 46.7051V131.406C0.425187 132.008 0.583063 132.599 0.883629 133.121C1.18419 133.642 1.61684 134.075 2.13797 134.376L110.467 196.891C110.988 197.192 111.579 197.35 112.18 197.35C112.781 197.349 113.372 197.191 113.893 196.89C114.413 196.589 114.846 196.156 115.146 195.635C115.446 195.114 115.604 194.523 115.603 193.921V157.535C115.602 156.933 115.76 156.342 116.061 155.82C116.361 155.299 116.794 154.866 117.315 154.565L152.288 134.376C152.809 134.075 153.242 133.642 153.543 133.121C153.843 132.599 154.001 132.008 154 131.406V46.7051C154.001 46.1034 153.843 45.5121 153.543 44.9907C153.242 44.4694 152.809 44.0365 152.288 43.7357L78.9251 1.3816C78.4046 1.08107 77.8141 0.922852 77.2131 0.922852C76.612 0.922852 76.0215 1.08107 75.501 1.3816Z" fill="#3A80FF"></path><path d="M77.2131 151.077C76.1241 151.077 75.0797 150.645 74.3096 149.875C73.5396 149.105 73.107 148.06 73.107 146.971V89.0593C73.1077 88.3392 73.2977 87.6319 73.6581 87.0085C74.0184 86.385 74.5364 85.8673 75.16 85.5073L125.314 56.5443C125.938 56.184 126.646 55.9943 127.366 55.9941C128.087 55.994 128.795 56.1833 129.419 56.5433C130.043 56.9032 130.561 57.4209 130.922 58.0446C131.282 58.6683 131.473 59.3758 131.473 60.0963V118.015C131.473 118.735 131.283 119.443 130.922 120.066C130.562 120.689 130.044 121.207 129.42 121.567L79.2803 150.53C78.6558 150.89 77.9478 151.078 77.2273 151.077H77.2131ZM81.3334 91.4036V139.839L123.247 115.621V67.2074L81.3334 91.4036Z" fill="white"></path><path d="M77.2131 151.077C76.4926 151.078 75.7845 150.89 75.16 150.53L25.0058 121.574C24.3822 121.214 23.8642 120.697 23.5038 120.073C23.1435 119.45 22.9534 118.742 22.9527 118.022V60.0963C22.9534 59.3758 23.1437 58.6683 23.5043 58.0446C23.865 57.4209 24.3834 56.9032 25.0075 56.5433C25.6316 56.1833 26.3394 55.994 27.0598 55.9941C27.7803 55.9943 28.488 56.184 29.1119 56.5443L79.2804 85.5002C79.904 85.8602 80.4219 86.3779 80.7823 87.0014C81.1427 87.6248 81.3327 88.3321 81.3334 89.0522V146.964C81.3334 148.053 80.9008 149.097 80.1308 149.867C79.3607 150.638 78.3163 151.07 77.2273 151.07L77.2131 151.077ZM31.165 115.642L73.0786 139.86V91.4249L31.165 67.2074V115.642Z" fill="white"></path><path d="M77.2131 93.1652C76.4926 93.1665 75.7844 92.9778 75.1601 92.6182L25.0058 63.6552C24.3835 63.2943 23.8669 62.7762 23.5078 62.1528C23.1487 61.5294 22.9597 60.8226 22.9597 60.1032C22.9597 59.3838 23.1487 58.677 23.5078 58.0536C23.8669 57.4302 24.3835 56.9121 25.0058 56.5512L75.1601 27.5882C75.7843 27.2278 76.4923 27.0381 77.2131 27.0381C77.9339 27.0381 78.642 27.2278 79.2662 27.5882L129.42 56.5512C130.043 56.9121 130.559 57.4302 130.918 58.0536C131.278 58.677 131.467 59.3838 131.467 60.1032C131.467 60.8226 131.278 61.5294 130.918 62.1528C130.559 62.7762 130.043 63.2943 129.42 63.6552L79.2804 92.6111C78.6559 92.9704 77.9478 93.1591 77.2273 93.1581L77.2131 93.1652ZM35.2356 60.0961L77.1492 84.3137L119.063 60.0961L77.1492 35.8786L35.2356 60.0961Z" fill="white"></path><path d="M157.9 170.03C167.505 160.061 179.165 155.077 192.881 155.077C206.222 155.077 216.823 160.066 224.685 170.045V127.421C224.687 126.766 224.948 126.139 225.412 125.677C225.875 125.215 226.503 124.956 227.157 124.956H243.731C244.055 124.955 244.377 125.018 244.676 125.141C244.976 125.265 245.249 125.446 245.479 125.675C245.708 125.904 245.89 126.176 246.015 126.476C246.139 126.775 246.203 127.096 246.203 127.421V253.431C246.204 253.756 246.141 254.078 246.017 254.379C245.893 254.679 245.711 254.952 245.481 255.182C245.251 255.411 244.978 255.593 244.678 255.717C244.378 255.841 244.056 255.905 243.731 255.904H227.157C226.832 255.905 226.511 255.841 226.21 255.717C225.91 255.593 225.637 255.411 225.407 255.182C225.177 254.952 224.995 254.679 224.871 254.379C224.747 254.078 224.684 253.756 224.685 253.431V242.775C216.828 252.508 206.227 257.374 192.881 257.374C179.288 257.374 167.659 252.354 157.993 242.314C148.327 232.273 143.496 220.277 143.501 206.325C143.501 192.117 148.303 180.019 157.907 170.03H157.9ZM163.52 206.325C163.446 210.462 164.202 214.573 165.744 218.413C167.287 222.253 169.584 225.744 172.499 228.681C178.485 234.838 185.907 237.916 194.763 237.916C198.902 237.965 203.007 237.159 206.821 235.55C210.635 233.94 214.075 231.56 216.928 228.56C219.896 225.67 222.246 222.205 223.834 218.378C225.422 214.55 226.214 210.44 226.163 206.296C226.163 197.691 223.084 190.239 216.928 183.94C210.771 177.641 203.383 174.492 194.763 174.492C190.62 174.419 186.508 175.214 182.691 176.825C178.874 178.436 175.436 180.829 172.599 183.848C169.662 186.792 167.346 190.297 165.787 194.153C164.229 198.009 163.46 202.138 163.527 206.296" fill="#15195E"></path><path d="M274.64 170.031C284.61 160.061 296.642 155.077 310.736 155.077C324.83 155.077 336.834 160.097 346.746 170.137C356.663 180.177 361.62 192.181 361.615 206.147C361.615 220.242 356.625 232.318 346.647 242.378C336.668 252.437 324.698 257.436 310.736 257.374C296.642 257.374 284.607 252.354 274.633 242.314C264.659 232.273 259.67 220.197 259.665 206.083C259.665 191.994 264.655 179.96 274.633 169.981L274.64 170.031ZM279.954 208.57C280.42 216.038 283.581 223.083 288.848 228.397C291.657 231.353 295.038 233.707 298.784 235.315C302.531 236.924 306.566 237.753 310.644 237.753C314.721 237.753 318.756 236.924 322.503 235.315C326.25 233.707 329.63 231.353 332.439 228.397C338.183 222.434 341.4 214.481 341.417 206.201C341.434 197.922 338.25 189.956 332.531 183.969C327.098 178.359 319.714 175.055 311.911 174.742C304.108 174.428 296.483 177.129 290.617 182.285C286.961 185.579 284.101 189.662 282.255 194.225C280.409 198.787 279.625 203.709 279.961 208.62" fill="#15195E"></path><path d="M374.935 156.753H391.508C391.833 156.753 392.155 156.816 392.456 156.94C392.756 157.064 393.029 157.246 393.259 157.475C393.488 157.705 393.67 157.978 393.794 158.278C393.918 158.579 393.982 158.901 393.981 159.226V169.882C401.838 160.154 412.439 155.29 425.785 155.29C439.378 155.29 451.007 160.31 460.673 170.351C470.339 180.391 475.172 192.394 475.172 206.361C475.172 220.569 470.37 232.646 460.765 242.591C451.161 252.537 439.501 257.465 425.785 257.375C412.439 257.375 401.84 252.402 393.988 242.456V292.738C393.989 293.063 393.925 293.385 393.801 293.685C393.678 293.986 393.496 294.259 393.266 294.488C393.036 294.718 392.763 294.9 392.463 295.024C392.162 295.148 391.84 295.211 391.516 295.21H374.935C374.61 295.21 374.289 295.146 373.99 295.022C373.69 294.898 373.418 294.716 373.189 294.486C372.96 294.256 372.779 293.984 372.655 293.684C372.532 293.384 372.469 293.063 372.47 292.738V159.219C372.469 158.894 372.532 158.573 372.655 158.273C372.779 157.973 372.96 157.701 373.189 157.471C373.418 157.241 373.69 157.059 373.99 156.935C374.289 156.81 374.61 156.746 374.935 156.746V156.753ZM392.482 206.318C392.431 210.461 393.223 214.572 394.811 218.399C396.398 222.227 398.748 225.691 401.717 228.582C404.602 231.535 408.046 233.884 411.849 235.49C415.652 237.096 419.737 237.928 423.866 237.936C427.994 237.945 432.082 237.13 435.892 235.54C439.702 233.95 443.156 231.616 446.053 228.674C451.857 222.685 455.11 214.677 455.127 206.337C455.144 197.997 451.924 189.975 446.145 183.962C440.159 177.805 432.738 174.727 423.881 174.727C419.742 174.678 415.637 175.483 411.823 177.093C408.01 178.703 404.569 181.082 401.717 184.083C398.748 186.973 396.398 190.438 394.811 194.265C393.223 198.093 392.431 202.203 392.482 206.347" fill="#15195E"></path><path d="M489.949 122.143C492.617 119.636 496.136 118.233 499.798 118.215C503.459 118.198 506.991 119.568 509.683 122.05C510.993 123.283 512.029 124.778 512.722 126.438C513.414 128.098 513.749 129.885 513.704 131.683C513.761 133.46 513.441 135.229 512.765 136.873C512.089 138.518 511.073 140 509.783 141.224C508.467 142.502 506.91 143.505 505.202 144.176C503.495 144.846 501.671 145.171 499.837 145.131C496.146 145.211 492.573 143.833 489.892 141.295C488.59 140.06 487.553 138.572 486.845 136.924C486.136 135.275 485.771 133.499 485.771 131.705C485.771 129.91 486.136 128.134 486.845 126.485C487.553 124.837 488.59 123.349 489.892 122.114L489.949 122.143ZM510.28 159.19V253.432C510.278 254.086 510.017 254.713 509.554 255.175C509.09 255.637 508.462 255.897 507.808 255.897H491.312C490.658 255.897 490.03 255.637 489.567 255.175C489.103 254.713 488.842 254.086 488.84 253.432V159.218C488.842 158.564 489.103 157.937 489.567 157.475C490.03 157.013 490.658 156.753 491.312 156.753H507.886C508.541 156.753 509.168 157.013 509.632 157.475C510.095 157.937 510.356 158.564 510.358 159.218" fill="#15195E"></path><path d="M524.929 204.805C524.929 190.464 529.605 178.586 538.959 169.171C548.313 159.756 559.724 155.058 573.193 155.077H574.316C587.657 155.205 598.259 160.13 606.12 169.853V159.197C606.12 158.541 606.381 157.913 606.844 157.449C607.308 156.985 607.937 156.725 608.593 156.725H625.166C625.491 156.724 625.813 156.787 626.113 156.911C626.414 157.035 626.687 157.217 626.916 157.447C627.146 157.677 627.328 157.95 627.452 158.25C627.576 158.55 627.639 158.872 627.638 159.197V248.416C627.638 264.13 622.931 276.477 613.516 285.456C604.1 294.436 592.471 298.935 578.628 298.954C567.538 299.072 556.687 295.738 547.576 289.413C539.16 283.617 533.39 275.378 530.264 264.699C530.158 264.33 530.14 263.942 530.21 263.565C530.28 263.188 530.436 262.832 530.667 262.525C530.897 262.219 531.196 261.97 531.539 261.799C531.882 261.627 532.26 261.538 532.644 261.537H549.253C549.732 261.531 550.202 261.667 550.603 261.928C551.005 262.188 551.321 262.561 551.512 263.001C553.479 268.013 557.155 272.167 561.891 274.729C566.964 277.508 572.659 278.955 578.443 278.935C586.546 278.935 593.155 276.441 598.27 271.454C603.385 266.467 606.004 258.923 606.127 248.821V240.744C598.394 249.974 587.792 254.59 574.323 254.59C560.115 254.59 548.329 249.818 538.966 240.275C529.603 230.732 524.924 218.909 524.929 204.805ZM544.948 204.805C544.863 208.863 545.636 212.894 547.215 216.634C548.794 220.373 551.144 223.738 554.112 226.507C560.09 232.171 568.017 235.32 576.252 235.303C584.487 235.286 592.401 232.104 598.356 226.415C601.274 223.627 603.599 220.277 605.19 216.567C606.781 212.858 607.606 208.865 607.615 204.828C607.623 200.791 606.816 196.795 605.24 193.078C603.665 189.362 601.355 186.002 598.448 183.201C595.519 180.308 592.04 178.03 588.216 176.504C584.392 174.977 580.301 174.233 576.184 174.314C567.456 174.314 560.067 177.246 554.02 183.109C547.972 188.972 544.948 196.204 544.948 204.805Z" fill="#15195E"></path><path d="M655.315 170.031C665.294 160.061 677.328 155.077 691.418 155.077C705.508 155.077 717.511 160.097 727.428 170.137C737.345 180.177 742.302 192.181 742.297 206.147C742.297 220.242 737.308 232.318 727.329 242.378C717.35 252.437 705.38 257.436 691.418 257.374C677.324 257.374 665.29 252.354 655.315 242.314C645.341 232.273 640.352 220.197 640.347 206.083C640.347 191.994 645.337 179.96 655.315 169.981V170.031ZM660.636 208.57C661.114 216.02 664.274 223.046 669.531 228.347C672.339 231.302 675.719 233.655 679.465 235.263C683.212 236.871 687.246 237.7 691.322 237.7C695.399 237.7 699.433 236.871 703.179 235.263C706.925 233.655 710.305 231.302 713.114 228.347C718.858 222.384 722.075 214.432 722.092 206.152C722.109 197.872 718.926 189.906 713.206 183.919C707.773 178.309 700.389 175.005 692.586 174.692C684.783 174.378 677.158 177.079 671.292 182.235C667.636 185.53 664.776 189.612 662.93 194.175C661.084 198.737 660.3 203.66 660.636 208.57" fill="#15195E"></path></svg>